<svg xmlns="http://www.w3.org/2000/svg" viewBox="0 0 260 260" role="img" aria-label="Logo Eco Enzim">
  <rect width="260" height="260" rx="36" fill="#0a3557"/>
  <circle cx="130" cy="130" r="86" fill="#6edcff"/>
  <path d="M92 142c0-26 18-44 38-44 15 0 29 11 33 26 6 20-6 46-33 46-24 0-38-15-38-28z" fill="#ffffff"/>
  <path d="M128 84c-13 0-22 8-22 20 0 8 5 14 12 18-4 5-7 11-7 19 0 17 12 30 31 30 13 0 23-5 29-14-5 1-10 2-15 2-18 0-32-13-32-30 0-9 4-17 10-22-7-3-12-9-12-17 0-10 8-19 19-19 7 0 13 3 18 8 3-7 6-13 9-19-7-6-16-10-27-10z" fill="#0a3557"/>
</svg>
